<mxfile host="www.draw.io" modified="2020-05-28T06:24:18.895Z" agent="5.0 (Macintosh; Intel Mac OS X 10_13_6) AppleWebKit/537.36 (KHTML, like Gecko) Chrome/83.0.4103.61 Safari/537.36" etag="oZtfxWzan_emNeG_i1Pj" version="13.1.3" type="github">
  <diagram id="Jlr0YtK8rFnlHwAL4J3F" name="Page-1">
    <mxGraphModel dx="892" dy="498" grid="1" gridSize="10" guides="1" tooltips="1" connect="1" arrows="1" fold="1" page="1" pageScale="1" pageWidth="827" pageHeight="1169" math="0" shadow="0">
      <root>
        <mxCell id="0" />
        <mxCell id="1" parent="0" />
        <mxCell id="YzndeLEqYxXnzL-oOE7i-16" value="手持类别" style="rounded=1;whiteSpace=wrap;html=1;" vertex="1" parent="1">
          <mxGeometry x="180" y="40" width="90" height="60" as="geometry" />
        </mxCell>
        <mxCell id="YzndeLEqYxXnzL-oOE7i-17" value="菜品类别" style="rounded=1;whiteSpace=wrap;html=1;" vertex="1" parent="1">
          <mxGeometry x="60" y="40" width="100" height="60" as="geometry" />
        </mxCell>
        <mxCell id="YzndeLEqYxXnzL-oOE7i-18" value="扫码类别" style="rounded=1;whiteSpace=wrap;html=1;" vertex="1" parent="1">
          <mxGeometry x="290" y="40" width="90" height="60" as="geometry" />
        </mxCell>
        <mxCell id="YzndeLEqYxXnzL-oOE7i-19" value="配料组明细" style="rounded=1;whiteSpace=wrap;html=1;" vertex="1" parent="1">
          <mxGeometry x="60" y="300" width="120" height="60" as="geometry" />
        </mxCell>
        <mxCell id="YzndeLEqYxXnzL-oOE7i-20" value="口味/做法分组明细" style="rounded=1;whiteSpace=wrap;html=1;" vertex="1" parent="1">
          <mxGeometry x="712.5" y="300" width="117.5" height="60" as="geometry" />
        </mxCell>
        <mxCell id="YzndeLEqYxXnzL-oOE7i-21" value="菜品/套餐" style="rounded=1;whiteSpace=wrap;html=1;" vertex="1" parent="1">
          <mxGeometry x="360" y="180" width="170" height="60" as="geometry" />
        </mxCell>
        <mxCell id="YzndeLEqYxXnzL-oOE7i-23" value="外卖类别" style="rounded=1;whiteSpace=wrap;html=1;" vertex="1" parent="1">
          <mxGeometry x="400" y="40" width="90" height="60" as="geometry" />
        </mxCell>
        <mxCell id="YzndeLEqYxXnzL-oOE7i-24" value="菜品标签&amp;nbsp;" style="rounded=1;whiteSpace=wrap;html=1;" vertex="1" parent="1">
          <mxGeometry x="760" y="40" width="102.5" height="60" as="geometry" />
        </mxCell>
        <mxCell id="YzndeLEqYxXnzL-oOE7i-25" value="餐盒" style="rounded=1;whiteSpace=wrap;html=1;" vertex="1" parent="1">
          <mxGeometry x="330" y="430" width="96" height="60" as="geometry" />
        </mxCell>
        <mxCell id="YzndeLEqYxXnzL-oOE7i-30" value="关联口味/做法分组" style="rounded=1;whiteSpace=wrap;html=1;" vertex="1" parent="1">
          <mxGeometry x="710" y="182.5" width="122.5" height="55" as="geometry" />
        </mxCell>
        <mxCell id="YzndeLEqYxXnzL-oOE7i-31" value="关联配料组" style="rounded=1;whiteSpace=wrap;html=1;" vertex="1" parent="1">
          <mxGeometry x="60" y="180" width="120" height="60" as="geometry" />
        </mxCell>
        <mxCell id="YzndeLEqYxXnzL-oOE7i-42" value="规格" style="rounded=1;whiteSpace=wrap;html=1;" vertex="1" parent="1">
          <mxGeometry x="220" y="430" width="100" height="60" as="geometry" />
        </mxCell>
        <mxCell id="YzndeLEqYxXnzL-oOE7i-46" value="规格售价" style="rounded=1;whiteSpace=wrap;html=1;" vertex="1" parent="1">
          <mxGeometry x="260" y="300" width="130" height="60" as="geometry" />
        </mxCell>
        <mxCell id="YzndeLEqYxXnzL-oOE7i-53" value="关联套餐分组" style="rounded=1;whiteSpace=wrap;html=1;" vertex="1" parent="1">
          <mxGeometry x="502.5" y="300" width="107.5" height="60" as="geometry" />
        </mxCell>
        <mxCell id="YzndeLEqYxXnzL-oOE7i-57" value="套餐分组明细" style="rounded=1;whiteSpace=wrap;html=1;" vertex="1" parent="1">
          <mxGeometry x="501.25" y="430" width="110" height="60" as="geometry" />
        </mxCell>
        <mxCell id="YzndeLEqYxXnzL-oOE7i-64" value="品牌" style="rounded=1;whiteSpace=wrap;html=1;" vertex="1" parent="1">
          <mxGeometry x="520" y="40" width="100" height="60" as="geometry" />
        </mxCell>
        <mxCell id="YzndeLEqYxXnzL-oOE7i-65" value="单位" style="rounded=1;whiteSpace=wrap;html=1;" vertex="1" parent="1">
          <mxGeometry x="640" y="40" width="100" height="60" as="geometry" />
        </mxCell>
        <mxCell id="YzndeLEqYxXnzL-oOE7i-67" value="配料" style="rounded=1;whiteSpace=wrap;html=1;" vertex="1" parent="1">
          <mxGeometry x="60" y="430" width="120" height="60" as="geometry" />
        </mxCell>
        <mxCell id="YzndeLEqYxXnzL-oOE7i-68" value="口味" style="rounded=1;whiteSpace=wrap;html=1;" vertex="1" parent="1">
          <mxGeometry x="682.5" y="430" width="90" height="60" as="geometry" />
        </mxCell>
        <mxCell id="YzndeLEqYxXnzL-oOE7i-69" value="做法" style="rounded=1;whiteSpace=wrap;html=1;" vertex="1" parent="1">
          <mxGeometry x="780" y="430" width="90" height="60" as="geometry" />
        </mxCell>
        <mxCell id="YzndeLEqYxXnzL-oOE7i-71" value="" style="endArrow=open;endFill=1;endSize=12;html=1;entryX=0.5;entryY=1;entryDx=0;entryDy=0;exitX=0.5;exitY=0;exitDx=0;exitDy=0;" edge="1" parent="1" source="YzndeLEqYxXnzL-oOE7i-21" target="YzndeLEqYxXnzL-oOE7i-17">
          <mxGeometry width="160" relative="1" as="geometry">
            <mxPoint x="390" y="250" as="sourcePoint" />
            <mxPoint x="550" y="250" as="targetPoint" />
          </mxGeometry>
        </mxCell>
        <mxCell id="YzndeLEqYxXnzL-oOE7i-72" value="" style="endArrow=open;endFill=1;endSize=12;html=1;entryX=0.5;entryY=1;entryDx=0;entryDy=0;exitX=0.5;exitY=0;exitDx=0;exitDy=0;" edge="1" parent="1" source="YzndeLEqYxXnzL-oOE7i-21" target="YzndeLEqYxXnzL-oOE7i-64">
          <mxGeometry width="160" relative="1" as="geometry">
            <mxPoint x="390" y="250" as="sourcePoint" />
            <mxPoint x="550" y="250" as="targetPoint" />
          </mxGeometry>
        </mxCell>
        <mxCell id="YzndeLEqYxXnzL-oOE7i-73" value="" style="endArrow=open;endFill=1;endSize=12;html=1;entryX=0.5;entryY=1;entryDx=0;entryDy=0;exitX=0.5;exitY=0;exitDx=0;exitDy=0;" edge="1" parent="1" source="YzndeLEqYxXnzL-oOE7i-21" target="YzndeLEqYxXnzL-oOE7i-65">
          <mxGeometry width="160" relative="1" as="geometry">
            <mxPoint x="390" y="250" as="sourcePoint" />
            <mxPoint x="550" y="250" as="targetPoint" />
          </mxGeometry>
        </mxCell>
        <mxCell id="YzndeLEqYxXnzL-oOE7i-74" value="" style="endArrow=open;endFill=1;endSize=12;html=1;entryX=0.5;entryY=1;entryDx=0;entryDy=0;exitX=0.5;exitY=0;exitDx=0;exitDy=0;" edge="1" parent="1" source="YzndeLEqYxXnzL-oOE7i-21" target="YzndeLEqYxXnzL-oOE7i-24">
          <mxGeometry width="160" relative="1" as="geometry">
            <mxPoint x="390" y="250" as="sourcePoint" />
            <mxPoint x="550" y="250" as="targetPoint" />
          </mxGeometry>
        </mxCell>
        <mxCell id="YzndeLEqYxXnzL-oOE7i-75" value="" style="endArrow=open;endFill=1;endSize=12;html=1;entryX=0.5;entryY=1;entryDx=0;entryDy=0;exitX=0.5;exitY=0;exitDx=0;exitDy=0;" edge="1" parent="1" source="YzndeLEqYxXnzL-oOE7i-21" target="YzndeLEqYxXnzL-oOE7i-23">
          <mxGeometry width="160" relative="1" as="geometry">
            <mxPoint x="390" y="250" as="sourcePoint" />
            <mxPoint x="550" y="250" as="targetPoint" />
          </mxGeometry>
        </mxCell>
        <mxCell id="YzndeLEqYxXnzL-oOE7i-76" value="" style="endArrow=open;endFill=1;endSize=12;html=1;entryX=0.5;entryY=1;entryDx=0;entryDy=0;exitX=0.5;exitY=0;exitDx=0;exitDy=0;" edge="1" parent="1" source="YzndeLEqYxXnzL-oOE7i-21" target="YzndeLEqYxXnzL-oOE7i-18">
          <mxGeometry width="160" relative="1" as="geometry">
            <mxPoint x="390" y="250" as="sourcePoint" />
            <mxPoint x="550" y="250" as="targetPoint" />
          </mxGeometry>
        </mxCell>
        <mxCell id="YzndeLEqYxXnzL-oOE7i-77" value="" style="endArrow=open;endFill=1;endSize=12;html=1;entryX=0.5;entryY=1;entryDx=0;entryDy=0;exitX=0.5;exitY=0;exitDx=0;exitDy=0;" edge="1" parent="1" source="YzndeLEqYxXnzL-oOE7i-21" target="YzndeLEqYxXnzL-oOE7i-16">
          <mxGeometry width="160" relative="1" as="geometry">
            <mxPoint x="390" y="250" as="sourcePoint" />
            <mxPoint x="550" y="250" as="targetPoint" />
          </mxGeometry>
        </mxCell>
        <mxCell id="YzndeLEqYxXnzL-oOE7i-78" value="" style="endArrow=none;dashed=1;html=1;" edge="1" parent="1">
          <mxGeometry width="50" height="50" relative="1" as="geometry">
            <mxPoint x="40" y="120" as="sourcePoint" />
            <mxPoint x="40" y="20" as="targetPoint" />
          </mxGeometry>
        </mxCell>
        <mxCell id="YzndeLEqYxXnzL-oOE7i-79" value="" style="endArrow=none;dashed=1;html=1;" edge="1" parent="1">
          <mxGeometry width="50" height="50" relative="1" as="geometry">
            <mxPoint x="503" y="120" as="sourcePoint" />
            <mxPoint x="502.5" y="20" as="targetPoint" />
          </mxGeometry>
        </mxCell>
        <mxCell id="YzndeLEqYxXnzL-oOE7i-80" value="" style="endArrow=none;dashed=1;html=1;" edge="1" parent="1">
          <mxGeometry width="50" height="50" relative="1" as="geometry">
            <mxPoint x="40" y="120" as="sourcePoint" />
            <mxPoint x="500" y="120" as="targetPoint" />
          </mxGeometry>
        </mxCell>
        <mxCell id="YzndeLEqYxXnzL-oOE7i-81" value="" style="endArrow=none;dashed=1;html=1;" edge="1" parent="1">
          <mxGeometry width="50" height="50" relative="1" as="geometry">
            <mxPoint x="40" y="20" as="sourcePoint" />
            <mxPoint x="500" y="20" as="targetPoint" />
          </mxGeometry>
        </mxCell>
        <mxCell id="YzndeLEqYxXnzL-oOE7i-82" value="菜品种类" style="text;html=1;strokeColor=none;fillColor=none;align=center;verticalAlign=middle;whiteSpace=wrap;rounded=0;" vertex="1" parent="1">
          <mxGeometry x="40" y="20" width="60" height="20" as="geometry" />
        </mxCell>
        <mxCell id="YzndeLEqYxXnzL-oOE7i-83" value="N" style="text;html=1;align=center;verticalAlign=middle;resizable=0;points=[];autosize=1;" vertex="1" parent="1">
          <mxGeometry x="807" y="100" width="20" height="20" as="geometry" />
        </mxCell>
        <mxCell id="YzndeLEqYxXnzL-oOE7i-87" value="" style="endArrow=open;html=1;endSize=12;startArrow=diamondThin;startSize=14;startFill=0;edgeStyle=orthogonalEdgeStyle;align=left;verticalAlign=bottom;exitX=0.25;exitY=1;exitDx=0;exitDy=0;" edge="1" parent="1" source="YzndeLEqYxXnzL-oOE7i-21" target="YzndeLEqYxXnzL-oOE7i-46">
          <mxGeometry x="-0.709" y="8" relative="1" as="geometry">
            <mxPoint x="380" y="370" as="sourcePoint" />
            <mxPoint x="540" y="370" as="targetPoint" />
            <mxPoint as="offset" />
          </mxGeometry>
        </mxCell>
        <mxCell id="YzndeLEqYxXnzL-oOE7i-88" value="" style="endArrow=open;html=1;endSize=12;startArrow=diamondThin;startSize=14;startFill=0;edgeStyle=orthogonalEdgeStyle;align=left;verticalAlign=bottom;exitX=0.75;exitY=1;exitDx=0;exitDy=0;entryX=0.5;entryY=0;entryDx=0;entryDy=0;" edge="1" parent="1" source="YzndeLEqYxXnzL-oOE7i-21" target="YzndeLEqYxXnzL-oOE7i-53">
          <mxGeometry x="-1" y="3" relative="1" as="geometry">
            <mxPoint x="380" y="370" as="sourcePoint" />
            <mxPoint x="540" y="370" as="targetPoint" />
          </mxGeometry>
        </mxCell>
        <mxCell id="YzndeLEqYxXnzL-oOE7i-89" value="" style="endArrow=open;endFill=1;endSize=12;html=1;exitX=0.5;exitY=1;exitDx=0;exitDy=0;entryX=0.5;entryY=0;entryDx=0;entryDy=0;" edge="1" parent="1" source="YzndeLEqYxXnzL-oOE7i-46" target="YzndeLEqYxXnzL-oOE7i-42">
          <mxGeometry width="160" relative="1" as="geometry">
            <mxPoint x="380" y="370" as="sourcePoint" />
            <mxPoint x="540" y="370" as="targetPoint" />
          </mxGeometry>
        </mxCell>
        <mxCell id="YzndeLEqYxXnzL-oOE7i-90" value="1" style="text;html=1;align=center;verticalAlign=middle;resizable=0;points=[];autosize=1;" vertex="1" parent="1">
          <mxGeometry x="400" y="251" width="20" height="20" as="geometry" />
        </mxCell>
        <mxCell id="YzndeLEqYxXnzL-oOE7i-91" value="N" style="text;html=1;align=center;verticalAlign=middle;resizable=0;points=[];autosize=1;" vertex="1" parent="1">
          <mxGeometry x="300" y="280" width="20" height="20" as="geometry" />
        </mxCell>
        <mxCell id="YzndeLEqYxXnzL-oOE7i-92" value="1" style="text;html=1;align=center;verticalAlign=middle;resizable=0;points=[];autosize=1;" vertex="1" parent="1">
          <mxGeometry x="470" y="251" width="20" height="20" as="geometry" />
        </mxCell>
        <mxCell id="YzndeLEqYxXnzL-oOE7i-93" value="N" style="text;html=1;align=center;verticalAlign=middle;resizable=0;points=[];autosize=1;" vertex="1" parent="1">
          <mxGeometry x="560" y="280" width="20" height="20" as="geometry" />
        </mxCell>
        <mxCell id="YzndeLEqYxXnzL-oOE7i-94" value="" style="endArrow=open;endFill=1;endSize=12;html=1;exitX=0.5;exitY=1;exitDx=0;exitDy=0;" edge="1" parent="1" source="YzndeLEqYxXnzL-oOE7i-46">
          <mxGeometry width="160" relative="1" as="geometry">
            <mxPoint x="380" y="370" as="sourcePoint" />
            <mxPoint x="374" y="430" as="targetPoint" />
          </mxGeometry>
        </mxCell>
        <mxCell id="YzndeLEqYxXnzL-oOE7i-95" value="" style="endArrow=open;html=1;endSize=12;startArrow=diamondThin;startSize=14;startFill=0;edgeStyle=orthogonalEdgeStyle;align=left;verticalAlign=bottom;entryX=1;entryY=0.5;entryDx=0;entryDy=0;exitX=0;exitY=0.5;exitDx=0;exitDy=0;" edge="1" parent="1" source="YzndeLEqYxXnzL-oOE7i-21" target="YzndeLEqYxXnzL-oOE7i-31">
          <mxGeometry x="-1" y="3" relative="1" as="geometry">
            <mxPoint x="380" y="370" as="sourcePoint" />
            <mxPoint x="540" y="370" as="targetPoint" />
          </mxGeometry>
        </mxCell>
        <mxCell id="YzndeLEqYxXnzL-oOE7i-96" value="1" style="edgeLabel;html=1;align=center;verticalAlign=middle;resizable=0;points=[];" vertex="1" connectable="0" parent="YzndeLEqYxXnzL-oOE7i-95">
          <mxGeometry x="-0.7867" y="-2" relative="1" as="geometry">
            <mxPoint y="-8" as="offset" />
          </mxGeometry>
        </mxCell>
        <mxCell id="YzndeLEqYxXnzL-oOE7i-97" value="N" style="text;html=1;align=center;verticalAlign=middle;resizable=0;points=[];autosize=1;" vertex="1" parent="1">
          <mxGeometry x="180" y="182.5" width="20" height="20" as="geometry" />
        </mxCell>
        <mxCell id="YzndeLEqYxXnzL-oOE7i-98" value="1" style="endArrow=open;html=1;endSize=12;startArrow=diamondThin;startSize=14;startFill=0;edgeStyle=orthogonalEdgeStyle;align=left;verticalAlign=bottom;exitX=0.5;exitY=1;exitDx=0;exitDy=0;entryX=0.5;entryY=0;entryDx=0;entryDy=0;" edge="1" parent="1" source="YzndeLEqYxXnzL-oOE7i-31" target="YzndeLEqYxXnzL-oOE7i-19">
          <mxGeometry x="-0.3333" y="10" relative="1" as="geometry">
            <mxPoint x="380" y="370" as="sourcePoint" />
            <mxPoint x="540" y="370" as="targetPoint" />
            <mxPoint as="offset" />
          </mxGeometry>
        </mxCell>
        <mxCell id="YzndeLEqYxXnzL-oOE7i-99" value="N" style="text;html=1;align=center;verticalAlign=middle;resizable=0;points=[];autosize=1;" vertex="1" parent="1">
          <mxGeometry x="130" y="280" width="20" height="20" as="geometry" />
        </mxCell>
        <mxCell id="YzndeLEqYxXnzL-oOE7i-100" value="" style="endArrow=open;endFill=1;endSize=12;html=1;exitX=0.5;exitY=1;exitDx=0;exitDy=0;" edge="1" parent="1" source="YzndeLEqYxXnzL-oOE7i-19" target="YzndeLEqYxXnzL-oOE7i-67">
          <mxGeometry width="160" relative="1" as="geometry">
            <mxPoint x="380" y="370" as="sourcePoint" />
            <mxPoint x="540" y="370" as="targetPoint" />
          </mxGeometry>
        </mxCell>
        <mxCell id="YzndeLEqYxXnzL-oOE7i-102" value="" style="endArrow=open;endFill=1;endSize=12;html=1;exitX=0.003;exitY=0.613;exitDx=0;exitDy=0;entryX=0.5;entryY=1;entryDx=0;entryDy=0;exitPerimeter=0;" edge="1" parent="1" source="YzndeLEqYxXnzL-oOE7i-57" target="YzndeLEqYxXnzL-oOE7i-21">
          <mxGeometry width="160" relative="1" as="geometry">
            <mxPoint x="380" y="310" as="sourcePoint" />
            <mxPoint x="540" y="310" as="targetPoint" />
          </mxGeometry>
        </mxCell>
        <mxCell id="YzndeLEqYxXnzL-oOE7i-103" value="1" style="endArrow=open;html=1;endSize=12;startArrow=diamondThin;startSize=14;startFill=1;edgeStyle=orthogonalEdgeStyle;align=left;verticalAlign=bottom;" edge="1" parent="1" target="YzndeLEqYxXnzL-oOE7i-57">
          <mxGeometry x="0.0057" y="15" relative="1" as="geometry">
            <mxPoint x="556" y="360" as="sourcePoint" />
            <mxPoint x="540" y="310" as="targetPoint" />
            <mxPoint x="-11" y="-15" as="offset" />
          </mxGeometry>
        </mxCell>
        <mxCell id="YzndeLEqYxXnzL-oOE7i-104" value="N" style="text;html=1;align=center;verticalAlign=middle;resizable=0;points=[];autosize=1;" vertex="1" parent="1">
          <mxGeometry x="560" y="410" width="20" height="20" as="geometry" />
        </mxCell>
        <mxCell id="YzndeLEqYxXnzL-oOE7i-105" value="" style="endArrow=none;dashed=1;html=1;" edge="1" parent="1">
          <mxGeometry width="50" height="50" relative="1" as="geometry">
            <mxPoint x="470" y="510" as="sourcePoint" />
            <mxPoint x="470" y="280" as="targetPoint" />
          </mxGeometry>
        </mxCell>
        <mxCell id="YzndeLEqYxXnzL-oOE7i-106" value="" style="endArrow=none;dashed=1;html=1;" edge="1" parent="1">
          <mxGeometry width="50" height="50" relative="1" as="geometry">
            <mxPoint x="470" y="280" as="sourcePoint" />
            <mxPoint x="660" y="280" as="targetPoint" />
          </mxGeometry>
        </mxCell>
        <mxCell id="YzndeLEqYxXnzL-oOE7i-107" value="" style="endArrow=none;dashed=1;html=1;" edge="1" parent="1">
          <mxGeometry width="50" height="50" relative="1" as="geometry">
            <mxPoint x="660" y="510" as="sourcePoint" />
            <mxPoint x="660" y="280" as="targetPoint" />
          </mxGeometry>
        </mxCell>
        <mxCell id="YzndeLEqYxXnzL-oOE7i-108" value="" style="endArrow=none;dashed=1;html=1;" edge="1" parent="1">
          <mxGeometry width="50" height="50" relative="1" as="geometry">
            <mxPoint x="470" y="510" as="sourcePoint" />
            <mxPoint x="660" y="510" as="targetPoint" />
          </mxGeometry>
        </mxCell>
        <mxCell id="YzndeLEqYxXnzL-oOE7i-109" value="套餐独有" style="text;html=1;strokeColor=none;fillColor=none;align=center;verticalAlign=middle;whiteSpace=wrap;rounded=0;" vertex="1" parent="1">
          <mxGeometry x="610" y="280" width="50" height="20" as="geometry" />
        </mxCell>
        <mxCell id="YzndeLEqYxXnzL-oOE7i-110" value="" style="endArrow=classic;html=1;entryX=0.5;entryY=0;entryDx=0;entryDy=0;exitX=0.5;exitY=1;exitDx=0;exitDy=0;" edge="1" parent="1" source="YzndeLEqYxXnzL-oOE7i-20" target="YzndeLEqYxXnzL-oOE7i-68">
          <mxGeometry width="50" height="50" relative="1" as="geometry">
            <mxPoint x="440" y="320" as="sourcePoint" />
            <mxPoint x="490" y="270" as="targetPoint" />
          </mxGeometry>
        </mxCell>
        <mxCell id="YzndeLEqYxXnzL-oOE7i-111" value="" style="endArrow=classic;html=1;entryX=0.5;entryY=0;entryDx=0;entryDy=0;exitX=0.5;exitY=1;exitDx=0;exitDy=0;" edge="1" parent="1" source="YzndeLEqYxXnzL-oOE7i-20" target="YzndeLEqYxXnzL-oOE7i-69">
          <mxGeometry width="50" height="50" relative="1" as="geometry">
            <mxPoint x="440" y="320" as="sourcePoint" />
            <mxPoint x="490" y="270" as="targetPoint" />
          </mxGeometry>
        </mxCell>
        <mxCell id="YzndeLEqYxXnzL-oOE7i-112" value="1" style="endArrow=open;html=1;endSize=12;startArrow=diamondThin;startSize=14;startFill=0;edgeStyle=orthogonalEdgeStyle;align=left;verticalAlign=bottom;exitX=1;exitY=0.5;exitDx=0;exitDy=0;entryX=0;entryY=0.5;entryDx=0;entryDy=0;" edge="1" parent="1" source="YzndeLEqYxXnzL-oOE7i-21" target="YzndeLEqYxXnzL-oOE7i-30">
          <mxGeometry x="-1" y="3" relative="1" as="geometry">
            <mxPoint x="380" y="300" as="sourcePoint" />
            <mxPoint x="540" y="300" as="targetPoint" />
          </mxGeometry>
        </mxCell>
        <mxCell id="YzndeLEqYxXnzL-oOE7i-113" value="N" style="text;html=1;align=center;verticalAlign=middle;resizable=0;points=[];autosize=1;" vertex="1" parent="1">
          <mxGeometry x="682.5" y="190" width="20" height="20" as="geometry" />
        </mxCell>
        <mxCell id="YzndeLEqYxXnzL-oOE7i-114" value="1" style="endArrow=open;html=1;endSize=12;startArrow=diamondThin;startSize=14;startFill=0;edgeStyle=orthogonalEdgeStyle;align=left;verticalAlign=bottom;exitX=0.5;exitY=1;exitDx=0;exitDy=0;entryX=0.5;entryY=0;entryDx=0;entryDy=0;" edge="1" parent="1" source="YzndeLEqYxXnzL-oOE7i-30" target="YzndeLEqYxXnzL-oOE7i-20">
          <mxGeometry x="-0.28" y="9" relative="1" as="geometry">
            <mxPoint x="380" y="300" as="sourcePoint" />
            <mxPoint x="540" y="300" as="targetPoint" />
            <mxPoint as="offset" />
          </mxGeometry>
        </mxCell>
        <mxCell id="YzndeLEqYxXnzL-oOE7i-115" value="N" style="edgeLabel;html=1;align=center;verticalAlign=middle;resizable=0;points=[];" vertex="1" connectable="0" parent="YzndeLEqYxXnzL-oOE7i-114">
          <mxGeometry x="0.6544" y="8" relative="1" as="geometry">
            <mxPoint x="0.75" y="-9.5" as="offset" />
          </mxGeometry>
        </mxCell>
      </root>
    </mxGraphModel>
  </diagram>
</mxfile>
